# Blender v2.90.0 OBJ File: 'Maze.blend'
# www.blender.org
mtllib Maze.mtl
o Cube
v 5.000000 0.000000 -5.000000
v 5.000000 -0.200000 -5.000000
v 5.000000 0.000000 5.000000
v 5.000000 -0.200000 5.000000
v -5.000000 0.000000 -5.000000
v -5.000000 -0.200000 -5.000000
v -5.000000 0.000000 5.000000
v -5.000000 -0.200000 5.000000
v -5.000000 -0.200000 -5.000000
v -5.000000 -0.200000 5.000000
v 5.000000 -0.200000 -5.000000
v 5.000000 -0.200000 5.000000
vt 0.625000 0.500000
vt 0.875000 0.500000
vt 0.875000 0.750000
vt 0.625000 0.750000
vt 0.375000 0.750000
vt 0.625000 1.000000
vt 0.375000 1.000000
vt 0.375000 0.000000
vt 0.625000 0.000000
vt 0.625000 0.250000
vt 0.375000 0.250000
vt 0.375000 0.250000
vt 0.375000 0.000000
vt 0.375000 0.500000
vt 0.125000 0.500000
vt 0.375000 0.500000
vt 0.375000 0.750000
vt 0.125000 0.750000
vt 0.375000 1.000000
vn 0.0000 1.0000 0.0000
vn 0.0000 0.0000 1.0000
vn -1.0000 0.0000 0.0000
vn 1.0000 0.0000 0.0000
vn 0.0000 0.0000 -1.0000
vn 0.0000 -1.0000 0.0000
usemtl Material
s off
f 1/1/1 5/2/1 7/3/1 3/4/1
f 4/5/2 3/4/2 7/6/2 8/7/2
f 8/8/3 7/9/3 5/10/3 6/11/3
f 8/8/2 6/11/2 9/12/2 10/13/2
f 2/14/4 1/1/4 3/4/4 4/5/4
f 6/11/5 5/10/5 1/1/5 2/14/5
f 9/15/6 11/16/6 12/17/6 10/18/6
f 2/14/2 4/5/2 12/17/2 11/16/2
f 6/11/2 2/14/2 11/16/2 9/12/2
f 4/5/2 8/7/2 10/19/2 12/17/2
o Cube.001
v -3.000000 0.000000 -4.800000
v -3.000000 1.000000 -4.800000
v -3.000000 0.000000 -5.000000
v -3.000000 1.000000 -5.000000
v 5.000000 0.000000 -4.800000
v 5.000000 1.000000 -4.800000
v 5.000000 0.000000 -5.000000
v 5.000000 1.000000 -5.000000
vt 0.375000 0.000000
vt 0.625000 0.000000
vt 0.625000 0.250000
vt 0.375000 0.250000
vt 0.625000 0.500000
vt 0.375000 0.500000
vt 0.625000 0.750000
vt 0.375000 0.750000
vt 0.625000 1.000000
vt 0.375000 1.000000
vt 0.125000 0.500000
vt 0.125000 0.750000
vt 0.875000 0.500000
vt 0.875000 0.750000
vn -1.0000 0.0000 0.0000
vn 0.0000 0.0000 -1.0000
vn 1.0000 0.0000 0.0000
vn 0.0000 0.0000 1.0000
vn 0.0000 -1.0000 0.0000
vn 0.0000 1.0000 0.0000
usemtl None
s off
f 13/20/7 14/21/7 16/22/7 15/23/7
f 15/23/8 16/22/8 20/24/8 19/25/8
f 19/25/9 20/24/9 18/26/9 17/27/9
f 17/27/10 18/26/10 14/28/10 13/29/10
f 15/30/11 19/25/11 17/27/11 13/31/11
f 20/24/12 16/32/12 14/33/12 18/26/12
o Cube.002
v -5.000000 0.000000 -2.800000
v -5.000000 1.000000 -2.800000
v -5.000000 0.000000 -3.000000
v -5.000000 1.000000 -3.000000
v -1.000000 0.000000 -2.800000
v -1.000000 1.000000 -2.800000
v -1.000000 0.000000 -3.000000
v -1.000000 1.000000 -3.000000
vt 0.375000 0.000000
vt 0.625000 0.000000
vt 0.625000 0.250000
vt 0.375000 0.250000
vt 0.625000 0.500000
vt 0.375000 0.500000
vt 0.625000 0.750000
vt 0.375000 0.750000
vt 0.625000 1.000000
vt 0.375000 1.000000
vt 0.125000 0.500000
vt 0.125000 0.750000
vt 0.875000 0.500000
vt 0.875000 0.750000
vn -1.0000 0.0000 0.0000
vn 0.0000 0.0000 -1.0000
vn 1.0000 0.0000 0.0000
vn 0.0000 0.0000 1.0000
vn 0.0000 -1.0000 0.0000
vn 0.0000 1.0000 0.0000
usemtl None
s off
f 21/34/13 22/35/13 24/36/13 23/37/13
f 23/37/14 24/36/14 28/38/14 27/39/14
f 27/39/15 28/38/15 26/40/15 25/41/15
f 25/41/16 26/40/16 22/42/16 21/43/16
f 23/44/17 27/39/17 25/41/17 21/45/17
f 28/38/18 24/46/18 22/47/18 26/40/18
o Cube.003
v -3.000000 0.000000 -0.800000
v -3.000000 1.000000 -0.800000
v -3.000000 0.000000 -1.000000
v -3.000000 1.000000 -1.000000
v 3.000000 0.000000 -0.800000
v 3.000000 1.000000 -0.800000
v 3.000000 0.000000 -1.000000
v 3.000000 1.000000 -1.000000
vt 0.375000 0.000000
vt 0.625000 0.000000
vt 0.625000 0.250000
vt 0.375000 0.250000
vt 0.625000 0.500000
vt 0.375000 0.500000
vt 0.625000 0.750000
vt 0.375000 0.750000
vt 0.625000 1.000000
vt 0.375000 1.000000
vt 0.125000 0.500000
vt 0.125000 0.750000
vt 0.875000 0.500000
vt 0.875000 0.750000
vn -1.0000 0.0000 0.0000
vn 0.0000 0.0000 -1.0000
vn 1.0000 0.0000 0.0000
vn 0.0000 0.0000 1.0000
vn 0.0000 -1.0000 0.0000
vn 0.0000 1.0000 0.0000
usemtl None
s off
f 29/48/19 30/49/19 32/50/19 31/51/19
f 31/51/20 32/50/20 36/52/20 35/53/20
f 35/53/21 36/52/21 34/54/21 33/55/21
f 33/55/22 34/54/22 30/56/22 29/57/22
f 31/58/23 35/53/23 33/55/23 29/59/23
f 36/52/24 32/60/24 30/61/24 34/54/24
o Cube.004
v 0.800000 0.000000 -4.800000
v 0.800000 1.000000 -4.800000
v 1.000000 0.000000 -4.800000
v 1.000000 1.000000 -4.800000
v 0.800000 0.000000 -2.800000
v 0.800000 1.000000 -2.800000
v 1.000000 0.000000 -2.800000
v 1.000000 1.000000 -2.800000
vt 0.375000 0.000000
vt 0.625000 0.000000
vt 0.625000 0.250000
vt 0.375000 0.250000
vt 0.625000 0.500000
vt 0.375000 0.500000
vt 0.625000 0.750000
vt 0.375000 0.750000
vt 0.625000 1.000000
vt 0.375000 1.000000
vt 0.125000 0.500000
vt 0.125000 0.750000
vt 0.875000 0.500000
vt 0.875000 0.750000
vn 0.0000 0.0000 -1.0000
vn 1.0000 0.0000 0.0000
vn 0.0000 0.0000 1.0000
vn -1.0000 0.0000 -0.0000
vn 0.0000 -1.0000 0.0000
vn 0.0000 1.0000 0.0000
usemtl None
s off
f 37/62/25 38/63/25 40/64/25 39/65/25
f 39/65/26 40/64/26 44/66/26 43/67/26
f 43/67/27 44/66/27 42/68/27 41/69/27
f 41/69/28 42/68/28 38/70/28 37/71/28
f 39/72/29 43/67/29 41/69/29 37/73/29
f 44/66/30 40/74/30 38/75/30 42/68/30
o Cube.005
v 4.800000 0.000000 -4.800000
v 4.800000 1.000000 -4.800000
v 5.000000 0.000000 -4.800000
v 5.000000 1.000000 -4.800000
v 4.800000 0.000000 5.000000
v 4.800000 1.000000 5.000000
v 5.000000 0.000000 5.000000
v 5.000000 1.000000 5.000000
vt 0.375000 0.000000
vt 0.625000 0.000000
vt 0.625000 0.250000
vt 0.375000 0.250000
vt 0.625000 0.500000
vt 0.375000 0.500000
vt 0.625000 0.750000
vt 0.375000 0.750000
vt 0.625000 1.000000
vt 0.375000 1.000000
vt 0.125000 0.500000
vt 0.125000 0.750000
vt 0.875000 0.500000
vt 0.875000 0.750000
vn 0.0000 0.0000 -1.0000
vn 1.0000 0.0000 0.0000
vn 0.0000 0.0000 1.0000
vn -1.0000 0.0000 -0.0000
vn 0.0000 -1.0000 0.0000
vn 0.0000 1.0000 0.0000
usemtl None
s off
f 45/76/31 46/77/31 48/78/31 47/79/31
f 47/79/32 48/78/32 52/80/32 51/81/32
f 51/81/33 52/80/33 50/82/33 49/83/33
f 49/83/34 50/82/34 46/84/34 45/85/34
f 47/86/35 51/81/35 49/83/35 45/87/35
f 52/80/36 48/88/36 46/89/36 50/82/36
o Cube.006
v 2.800000 0.000000 -4.800000
v 2.800000 1.000000 -4.800000
v 3.000000 0.000000 -4.800000
v 3.000000 1.000000 -4.800000
v 2.800000 0.000000 -1.000000
v 2.800000 1.000000 -1.000000
v 3.000000 0.000000 -1.000000
v 3.000000 1.000000 -1.000000
vt 0.375000 0.000000
vt 0.625000 0.000000
vt 0.625000 0.250000
vt 0.375000 0.250000
vt 0.625000 0.500000
vt 0.375000 0.500000
vt 0.625000 0.750000
vt 0.375000 0.750000
vt 0.625000 1.000000
vt 0.375000 1.000000
vt 0.125000 0.500000
vt 0.125000 0.750000
vt 0.875000 0.500000
vt 0.875000 0.750000
vn 0.0000 0.0000 -1.0000
vn 1.0000 0.0000 0.0000
vn 0.0000 0.0000 1.0000
vn -1.0000 0.0000 -0.0000
vn 0.0000 -1.0000 0.0000
vn 0.0000 1.0000 0.0000
usemtl None
s off
f 53/90/37 54/91/37 56/92/37 55/93/37
f 55/93/38 56/92/38 60/94/38 59/95/38
f 59/95/39 60/94/39 58/96/39 57/97/39
f 57/97/40 58/96/40 54/98/40 53/99/40
f 55/100/41 59/95/41 57/97/41 53/101/41
f 60/94/42 56/102/42 54/103/42 58/96/42
o Cube.007
v -5.000000 0.000000 -2.800000
v -5.000000 1.000000 -2.800000
v -4.800000 0.000000 -2.800000
v -4.800000 1.000000 -2.800000
v -5.000000 0.000000 5.000000
v -5.000000 1.000000 5.000000
v -4.800000 0.000000 5.000000
v -4.800000 1.000000 5.000000
vt 0.375000 0.000000
vt 0.625000 0.000000
vt 0.625000 0.250000
vt 0.375000 0.250000
vt 0.625000 0.500000
vt 0.375000 0.500000
vt 0.625000 0.750000
vt 0.375000 0.750000
vt 0.625000 1.000000
vt 0.375000 1.000000
vt 0.125000 0.500000
vt 0.125000 0.750000
vt 0.875000 0.500000
vt 0.875000 0.750000
vn 0.0000 0.0000 -1.0000
vn 1.0000 0.0000 0.0000
vn 0.0000 0.0000 1.0000
vn -1.0000 0.0000 -0.0000
vn 0.0000 -1.0000 0.0000
vn 0.0000 1.0000 0.0000
usemtl None
s off
f 61/104/43 62/105/43 64/106/43 63/107/43
f 63/107/44 64/106/44 68/108/44 67/109/44
f 67/109/45 68/108/45 66/110/45 65/111/45
f 65/111/46 66/110/46 62/112/46 61/113/46
f 63/114/47 67/109/47 65/111/47 61/115/47
f 68/108/48 64/116/48 62/117/48 66/110/48
o Cube.008
v -4.800000 0.000000 5.000000
v -4.800000 1.000000 5.000000
v -4.800000 0.000000 4.800000
v -4.800000 1.000000 4.800000
v 3.200001 0.000000 5.000000
v 3.200001 1.000000 5.000000
v 3.200001 0.000000 4.800000
v 3.200001 1.000000 4.800000
vt 0.375000 0.000000
vt 0.625000 0.000000
vt 0.625000 0.250000
vt 0.375000 0.250000
vt 0.625000 0.500000
vt 0.375000 0.500000
vt 0.625000 0.750000
vt 0.375000 0.750000
vt 0.625000 1.000000
vt 0.375000 1.000000
vt 0.125000 0.500000
vt 0.125000 0.750000
vt 0.875000 0.500000
vt 0.875000 0.750000
vn -1.0000 0.0000 0.0000
vn 0.0000 0.0000 -1.0000
vn 1.0000 0.0000 0.0000
vn 0.0000 0.0000 1.0000
vn 0.0000 -1.0000 0.0000
vn 0.0000 1.0000 0.0000
usemtl None
s off
f 69/118/49 70/119/49 72/120/49 71/121/49
f 71/121/50 72/120/50 76/122/50 75/123/50
f 75/123/51 76/122/51 74/124/51 73/125/51
f 73/125/52 74/124/52 70/126/52 69/127/52
f 71/128/53 75/123/53 73/125/53 69/129/53
f 76/122/54 72/130/54 70/131/54 74/124/54
o Cube.009
v 0.800000 0.000000 -0.800000
v 0.800000 1.000000 -0.800000
v 1.000000 0.000000 -0.800000
v 1.000000 1.000000 -0.800000
v 0.800000 0.000000 1.200000
v 0.800000 1.000000 1.200000
v 1.000000 0.000000 1.200000
v 1.000000 1.000000 1.200000
vt 0.375000 0.000000
vt 0.625000 0.000000
vt 0.625000 0.250000
vt 0.375000 0.250000
vt 0.625000 0.500000
vt 0.375000 0.500000
vt 0.625000 0.750000
vt 0.375000 0.750000
vt 0.625000 1.000000
vt 0.375000 1.000000
vt 0.125000 0.500000
vt 0.125000 0.750000
vt 0.875000 0.500000
vt 0.875000 0.750000
vn 0.0000 0.0000 -1.0000
vn 1.0000 0.0000 0.0000
vn 0.0000 0.0000 1.0000
vn -1.0000 0.0000 -0.0000
vn 0.0000 -1.0000 0.0000
vn 0.0000 1.0000 0.0000
usemtl None
s off
f 77/132/55 78/133/55 80/134/55 79/135/55
f 79/135/56 80/134/56 84/136/56 83/137/56
f 83/137/57 84/136/57 82/138/57 81/139/57
f 81/139/58 82/138/58 78/140/58 77/141/58
f 79/142/59 83/137/59 81/139/59 77/143/59
f 84/136/60 80/144/60 78/145/60 82/138/60
o Cube.010
v -1.000000 0.000000 1.200000
v -1.000000 1.000000 1.200000
v -1.000000 0.000000 1.000000
v -1.000000 1.000000 1.000000
v 0.800000 0.000000 1.200000
v 0.800000 1.000000 1.200000
v 0.800000 0.000000 1.000000
v 0.800000 1.000000 1.000000
vt 0.375000 0.000000
vt 0.625000 0.000000
vt 0.625000 0.250000
vt 0.375000 0.250000
vt 0.625000 0.500000
vt 0.375000 0.500000
vt 0.625000 0.750000
vt 0.375000 0.750000
vt 0.625000 1.000000
vt 0.375000 1.000000
vt 0.125000 0.500000
vt 0.125000 0.750000
vt 0.875000 0.500000
vt 0.875000 0.750000
vn -1.0000 0.0000 0.0000
vn 0.0000 0.0000 -1.0000
vn 1.0000 0.0000 0.0000
vn 0.0000 0.0000 1.0000
vn 0.0000 -1.0000 0.0000
vn 0.0000 1.0000 0.0000
usemtl None
s off
f 85/146/61 86/147/61 88/148/61 87/149/61
f 87/149/62 88/148/62 92/150/62 91/151/62
f 91/151/63 92/150/63 90/152/63 89/153/63
f 89/153/64 90/152/64 86/154/64 85/155/64
f 87/156/65 91/151/65 89/153/65 85/157/65
f 92/150/66 88/158/66 86/159/66 90/152/66
o Cube.011
v -3.000000 0.000000 -0.800000
v -3.000000 1.000000 -0.800000
v -2.800000 0.000000 -0.800000
v -2.800000 1.000000 -0.800000
v -3.000000 0.000000 1.200000
v -3.000000 1.000000 1.200000
v -2.800000 0.000000 1.200000
v -2.800000 1.000000 1.200000
vt 0.375000 0.000000
vt 0.625000 0.000000
vt 0.625000 0.250000
vt 0.375000 0.250000
vt 0.625000 0.500000
vt 0.375000 0.500000
vt 0.625000 0.750000
vt 0.375000 0.750000
vt 0.625000 1.000000
vt 0.375000 1.000000
vt 0.125000 0.500000
vt 0.125000 0.750000
vt 0.875000 0.500000
vt 0.875000 0.750000
vn 0.0000 0.0000 -1.0000
vn 1.0000 0.0000 0.0000
vn 0.0000 0.0000 1.0000
vn -1.0000 0.0000 0.0000
vn 0.0000 -1.0000 0.0000
vn 0.0000 1.0000 0.0000
usemtl None
s off
f 93/160/67 94/161/67 96/162/67 95/163/67
f 95/163/68 96/162/68 100/164/68 99/165/68
f 99/165/69 100/164/69 98/166/69 97/167/69
f 97/167/70 98/166/70 94/168/70 93/169/70
f 95/170/71 99/165/71 97/167/71 93/171/71
f 100/164/72 96/172/72 94/173/72 98/166/72
o Cube.012
v -4.800000 0.000000 3.200000
v -4.800000 1.000000 3.200000
v -4.800000 0.000000 3.000000
v -4.800000 1.000000 3.000000
v -2.800000 0.000000 3.200000
v -2.800000 1.000000 3.200000
v -2.800000 0.000000 3.000000
v -2.800000 1.000000 3.000000
vt 0.375000 0.000000
vt 0.625000 0.000000
vt 0.625000 0.250000
vt 0.375000 0.250000
vt 0.625000 0.500000
vt 0.375000 0.500000
vt 0.625000 0.750000
vt 0.375000 0.750000
vt 0.625000 1.000000
vt 0.375000 1.000000
vt 0.125000 0.500000
vt 0.125000 0.750000
vt 0.875000 0.500000
vt 0.875000 0.750000
vn -1.0000 0.0000 0.0000
vn 0.0000 0.0000 -1.0000
vn 1.0000 0.0000 0.0000
vn 0.0000 0.0000 1.0000
vn 0.0000 -1.0000 0.0000
vn 0.0000 1.0000 0.0000
usemtl None
s off
f 101/174/73 102/175/73 104/176/73 103/177/73
f 103/177/74 104/176/74 108/178/74 107/179/74
f 107/179/75 108/178/75 106/180/75 105/181/75
f 105/181/76 106/180/76 102/182/76 101/183/76
f 103/184/77 107/179/77 105/181/77 101/185/77
f 108/178/78 104/186/78 102/187/78 106/180/78
o Cube.013
v -1.200000 0.000000 1.000000
v -1.200000 1.000000 1.000000
v -1.000000 0.000000 1.000000
v -1.000000 1.000000 1.000000
v -1.200000 0.000000 3.000000
v -1.200000 1.000000 3.000000
v -1.000000 0.000000 3.000000
v -1.000000 1.000000 3.000000
vt 0.375000 0.000000
vt 0.625000 0.000000
vt 0.625000 0.250000
vt 0.375000 0.250000
vt 0.625000 0.500000
vt 0.375000 0.500000
vt 0.625000 0.750000
vt 0.375000 0.750000
vt 0.625000 1.000000
vt 0.375000 1.000000
vt 0.125000 0.500000
vt 0.125000 0.750000
vt 0.875000 0.500000
vt 0.875000 0.750000
vn 0.0000 0.0000 -1.0000
vn 1.0000 0.0000 0.0000
vn 0.0000 0.0000 1.0000
vn -1.0000 0.0000 0.0000
vn 0.0000 -1.0000 0.0000
vn 0.0000 1.0000 0.0000
usemtl None
s off
f 109/188/79 110/189/79 112/190/79 111/191/79
f 111/191/80 112/190/80 116/192/80 115/193/80
f 115/193/81 116/192/81 114/194/81 113/195/81
f 113/195/82 114/194/82 110/196/82 109/197/82
f 111/198/83 115/193/83 113/195/83 109/199/83
f 116/192/84 112/200/84 110/201/84 114/194/84
o Cube.014
v -1.200000 0.000000 3.200000
v -1.200000 1.000000 3.200000
v -1.200000 0.000000 3.000000
v -1.200000 1.000000 3.000000
v 0.800000 0.000000 3.200000
v 0.800000 1.000000 3.200000
v 0.800000 0.000000 3.000000
v 0.800000 1.000000 3.000000
vt 0.375000 0.000000
vt 0.625000 0.000000
vt 0.625000 0.250000
vt 0.375000 0.250000
vt 0.625000 0.500000
vt 0.375000 0.500000
vt 0.625000 0.750000
vt 0.375000 0.750000
vt 0.625000 1.000000
vt 0.375000 1.000000
vt 0.125000 0.500000
vt 0.125000 0.750000
vt 0.875000 0.500000
vt 0.875000 0.750000
vn -1.0000 0.0000 0.0000
vn 0.0000 0.0000 -1.0000
vn 1.0000 0.0000 0.0000
vn 0.0000 0.0000 1.0000
vn 0.0000 -1.0000 0.0000
vn 0.0000 1.0000 0.0000
usemtl None
s off
f 117/202/85 118/203/85 120/204/85 119/205/85
f 119/205/86 120/204/86 124/206/86 123/207/86
f 123/207/87 124/206/87 122/208/87 121/209/87
f 121/209/88 122/208/88 118/210/88 117/211/88
f 119/212/89 123/207/89 121/209/89 117/213/89
f 124/206/90 120/214/90 118/215/90 122/208/90
o Cube.015
v 3.200001 0.000000 4.800000
v 3.200001 1.000000 4.800000
v 3.000001 0.000000 4.800000
v 3.000001 1.000000 4.800000
v 3.200001 0.000000 0.800000
v 3.200001 1.000000 0.800000
v 3.000000 0.000000 0.800000
v 3.000000 1.000000 0.800000
vt 0.375000 0.000000
vt 0.625000 0.000000
vt 0.625000 0.250000
vt 0.375000 0.250000
vt 0.625000 0.500000
vt 0.375000 0.500000
vt 0.625000 0.750000
vt 0.375000 0.750000
vt 0.625000 1.000000
vt 0.375000 1.000000
vt 0.125000 0.500000
vt 0.125000 0.750000
vt 0.875000 0.500000
vt 0.875000 0.750000
vn 0.0000 0.0000 1.0000
vn -1.0000 0.0000 0.0000
vn 0.0000 0.0000 -1.0000
vn 1.0000 0.0000 -0.0000
vn 0.0000 -1.0000 0.0000
vn 0.0000 1.0000 0.0000
usemtl None
s off
f 125/216/91 126/217/91 128/218/91 127/219/91
f 127/219/92 128/218/92 132/220/92 131/221/92
f 131/221/93 132/220/93 130/222/93 129/223/93
f 129/223/94 130/222/94 126/224/94 125/225/94
f 127/226/95 131/221/95 129/223/95 125/227/95
f 132/220/96 128/228/96 126/229/96 130/222/96
